<svg xmlns="http://www.w3.org/2000/svg" width="256" height="256"><path fill-opacity=".431" d="M0 128.004v128.004l128.25-.254 128.25-.254.254-127.75L257.008 0H0v128.004m.485.496c0 70.4.119 99.053.265 63.672.146-35.38.146-92.98 0-128C.604 29.153.485 58.1.485 128.5" fill="#1976D2" fill-rule="evenodd"/><path fill-opacity=".166" d="M128 26.415v5.414l-7.75.668c-4.263.368-11.504 1.533-16.093 2.589l-8.343 1.921-4.44-3.909c-16.59-14.603-41.901-12.047-53.95 5.448-3.146 4.568-3.756 6.361-4.18 12.29-.787 10.998 2.37 20.919 10.955 34.429l3.028 4.765-3.886 4.235c-7.811 8.511-9.586 11.408-8.375 13.671.607 1.135 1.782 2.064 2.61 2.064 1.094 0 .822.736-.996 2.697-1.375 1.483-3.028 3.97-3.672 5.525-.977 2.359-.892 3.138.51 4.687 1.371 1.515 2.359 1.705 5.353 1.03 2.02-.456 3.803-.699 3.962-.54.158.159-.324 2.047-1.071 4.195-.748 2.148-1.647 5.749-1.998 8.001-.583 3.739-.409 4.2 2.001 5.298 1.84.839 2.957.885 3.687.155 2.238-2.238 2.649-.665 2.663 10.202.014 11.185 1.465 20.065 4.658 28.517 1.908 5.052 4.275 5.988 9.556 3.782 5.137-2.147 15.267-1.961 20.408.373 2.275 1.034 5.923 3.492 8.105 5.464 3.69 3.334 4.013 4.063 4.603 10.413 1.214 13.062 6.521 23.949 14.277 29.285 8.005 5.507 12.705 6.049 49.598 5.716 31.509-.284 33.519-.413 37.78-2.424 5.427-2.562 10.396-7.341 13.33-12.823 1.983-3.703 2.198-5.791 2.492-24.191l.323-20.138 6.417-.409c7.35-.468 10.966-2.551 13.686-7.886 1.52-2.98 1.749-6.549 1.75-27.278.002-20.208-.253-24.386-1.668-27.368-2.424-5.109-6.586-7.275-13.988-7.279l-6.159-.004-.361-14.75c-.413-16.846-1.451-19.972-8.86-26.665-5.741-5.187-9.889-6.688-19.08-6.902l-7.862-.183-.01-6.282c-.012-7.402-1.721-12.059-5.524-15.05-2.579-2.029-3.835-2.168-19.621-2.168H135v-3.545c0-2.431-.772-4.317-2.455-6-3.656-3.657-4.545-3.078-4.545 2.96m-66 3.65c-9.776 1.517-17.161 6.524-21.205 14.375-3.231 6.272-2.217 17.033 2.549 27.068 2.029 4.273 5.257 9.904 7.172 12.514C52.432 86.632 54 89.484 54 90.36c0 .875-1.622 3.065-3.605 4.866-1.983 1.801-4.421 4.417-5.418 5.814l-1.814 2.539 3.411-.398c2.842-.332 3.567-.005 4.352 1.961.787 1.968.508 2.689-1.685 4.358-1.445 1.1-4.175 3.379-6.066 5.065l-3.438 3.064 3.645-.425c6.592-.77 8.066 2.387 4.64 9.937-2.7 5.95-2.571 6.522 1.36 6.063 1.86-.218 3.695.112 4.079.733.383.62.804 8.426.934 17.345.179 12.244.666 17.529 1.989 21.567l1.752 5.348 3.682-.848c2.025-.467 7.282-.841 11.682-.832 6.888.014 8.714.41 13.138 2.848 2.826 1.557 7.073 4.803 9.439 7.213 4.001 4.077 4.355 4.883 5.068 11.557 1.953 18.279 9.283 28.115 22.605 30.333 2.924.487 4.25.353 4.25-.43 0-2.179-6.714-8.031-9.96-8.68-8.374-1.675-14.481-14.807-11.065-23.792 1.192-3.136 6.549-6.557 10.275-6.562 2.39-.004 2.75.389 2.75 2.996 0 2.365-.437 3-2.066 3-3.22 0-5.934 1.871-5.934 4.092 0 1.889.145 1.92 2.223.465 1.388-.973 4.389-1.557 8-1.557H128v-42h14.451c7.948 0 16.7.482 19.449 1.072 6.49 1.392 12.264 5.648 15.783 11.636 2.365 4.022 2.817 5.916 2.817 11.792 0 5.876-.452 7.77-2.817 11.792-1.549 2.636-4.595 6.08-6.768 7.655-6.419 4.649-11.88 5.416-34.37 4.822-13.655-.36-18.929-.223-16.545.43 4.666 1.277 5.248 2.002 3.549 4.427-1.076 1.537-2.253 1.947-4.74 1.651-3.14-.373-3.21-.313-1.368 1.165 1.068.857 2.695 1.558 3.615 1.558 2.234 0 6.944 3.78 6.944 5.573 0 1.205 4.818 1.427 31.05 1.427 33.799 0 34.788-.146 38.552-5.699 1.817-2.682 1.898-5.636 1.898-69.301 0-61.69-.128-66.734-1.767-69.733C194.397 70.163 193.39 70 159.05 70c-30.383 0-31.05-.043-31.05-2 0-2.142-.74-2.452-2.774-1.161-.973.617-.795 1.241.75 2.64 1.727 1.562 2.024 3.068 2.024 10.26v8.429l-4.25-3.262c-2.338-1.794-4.604-3.559-5.037-3.921-1.323-1.108 1.117-5.983 3.012-6.017 1.583-.028 1.606-.163.215-1.25-7.431-5.802-7.209-5.495-5.613-7.775.823-1.175 3.786-3.197 6.585-4.494 2.997-1.388 5.088-3.011 5.088-3.948 0-1.404 2.045-1.556 17.501-1.296l17.501.295-.001-5.25L163 46h-35v-4c0-3.568-.262-4-2.428-4-4.853 0-18.216 2.16-24.107 3.897-6.964 2.054-8.227 1.776-11.898-2.615-3.204-3.832-13.465-8.953-19.067-9.514-2.2-.221-6.025-.087-8.5.297m-5.236 5.876c-4.735 1.521-9.756 5.142-11.318 8.163-1.434 2.774-1.394 2.962.845 3.983 2.051.934 2.797.625 5.84-2.418 2.595-2.595 4.704-3.672 8.225-4.2 5.415-.812 6.58-.197 4.856 2.563-1.512 2.422-1.486 3.022.228 5.284 1.296 1.709 1.687 1.724 6.65.25 6.191-1.839 11.669-2.001 15.595-.463 2.786 1.092 2.792 1.112.565 1.968-2.068.795-2.744 2.447-2.325 5.679.09.688-.42 1.254-1.131 1.26C80.243 58.044 66 68.126 66 71.313c0 .539-2.105 3.23-4.678 5.98l-4.677 5.001 2.179 1.765c2.14 1.732 2.278 1.668 7.577-3.505 2.969-2.899 5.558-6.1 5.753-7.115.624-3.238 8.441-8.277 14.915-9.614 4.841-1 6.105-1.67 6.558-3.475.309-1.23.29-2.675-.042-3.212-.331-.536.752-1.273 2.407-1.636 3.835-.843 5.2-4.878 2.379-7.035-5.445-4.163-10.938-5.967-18.167-5.967-7.027 0-7.275-.081-6.741-2.21.385-1.533-.028-2.522-1.349-3.229-2.737-1.465-12.14-2.151-15.35-1.12m61.903 55.726c-.367.366-.662 1.604-.657 2.75.007 1.474 1.25 2.649 4.25 4.021 2.332 1.065 4.578 2.115 4.99 2.333.412.218.75-1.892.75-4.688V91h-4.333c-2.384 0-4.634.3-5 .667m35.958 1.802c-8.107 2.89-14.581 12.006-14.581 20.531 0 11.288 10.605 21.968 21.84 21.994 9.012.022 18.932-7.888 21.069-16.8 1.899-7.914.048-14.294-5.849-20.166-6.678-6.649-14.202-8.509-22.479-5.559m-30.436 10.57c-2.685 2.501-2.686 2.584-.074 8.488 1.555 3.515 1.96 5.906 1.532 9.032-.44 3.209-.223 4.39.885 4.815 1.242.477 1.468-1.354 1.468-11.905 0-6.858-.365-12.469-.811-12.469-.447 0-1.797.918-3 2.039m31.836 3.936c-4.465 4.465-2.887 11.832 2.973 13.874 8.253 2.878 15.001-7.744 8.688-13.675-3.011-2.828-8.931-2.929-11.661-.199M213 139.5V161h8v-43h-8v21.5M92 126.706c-2.667.975-6 4.592-6 6.511 0 3.233 8.879 11.758 13.546 13.007l4.172 1.115-2.292 5.849c-2.338 5.968-4.11 13.543-4.634 19.812-.263 3.15-.021 3.531 2.423 3.813 2.166.25 2.805-.155 3.157-2 2.708-14.186 4.138-19.354 7.05-25.486 3.076-6.478 3.792-7.293 7.246-8.252 2.107-.585 4.845-1.066 6.082-1.069 1.832-.005 2.25-.563 2.25-3.006 0-2.727-.296-2.996-3.25-2.956-1.787.024-4.934.645-6.993 1.38-3.721 1.328-3.755 1.316-5.851-2.075-3.369-5.452-11.464-8.632-16.906-6.643m1.253 6.116c-.901.572-.346 1.647 2 3.875 3.813 3.62 7.032 4.802 9.426 3.463 1.527-.855 1.317-1.364-1.88-4.561-3.505-3.505-6.862-4.481-9.546-2.777M134 180.5V191h10v-21h-10v10.5m24 0c0 8.415.283 10.5 1.423 10.5 2.505 0 7.299-4.858 7.936-8.043.762-3.812-1.339-9.129-4.476-11.326-4.48-3.138-4.883-2.406-4.883 8.869" fill="#1976D2" fill-rule="evenodd"/><path fill-opacity=".355" d="M128 27.353v5.353l-9.25.595c-5.088.327-12.39 1.486-16.229 2.576l-6.979 1.981-4.014-3.974c-2.208-2.186-6.493-5.192-9.521-6.679C77.195 24.841 75.301 24.5 67 24.5c-8.362 0-10.249.346-15.747 2.885-6.458 2.983-12.762 8.831-15.752 14.613-5.011 9.691-1.797 26.533 7.874 41.257 3.868 5.889 4.21 6.844 2.854 7.968-.847.702-3.956 4.304-6.908 8.003-4.811 6.029-5.236 6.94-4.094 8.793.768 1.247 1.979 1.886 3.051 1.61 1.299-.333.945.492-1.317 3.068-6.679 7.607-5.923 11.974 1.87 10.806 4.303-.646 4.423-.592 3.768 1.665-1.893 6.517-2.869 12.687-2.258 14.279.675 1.759 2.824 1.798 6.787.121 1.454-.615 1.574.261 1.12 8.216-.557 9.765.723 19.331 3.876 28.976 2.412 7.379 4.291 8.798 9.036 6.822 10.401-4.333 21.027-2.408 29.075 5.27 4.789 4.569 4.962 4.932 5.775 12.19 1.248 11.125 4.363 18.461 10.402 24.501 8.339 8.338 9.058 8.459 50.516 8.447 35.151-.009 35.631-.037 40.579-2.341 2.754-1.283 6.468-3.995 8.252-6.028 6.034-6.872 6.537-9.12 7.013-31.371l.433-20.25h5.947c3.36 0 7.223-.66 8.881-1.517 5.627-2.91 5.967-4.805 5.967-33.298 0-25.07-.071-26.005-2.168-28.671-2.83-3.598-7.586-5.514-13.686-5.514h-4.919l-.413-13.75c-.347-11.537-.776-14.553-2.663-18.738-4.689-10.4-11.368-14.601-24.534-15.435L176.5 56.5l-.504-8c-.913-14.498-2.559-15.5-25.446-15.5H134v-3.845c0-2.455-.661-4.443-1.829-5.5-3.191-2.888-4.171-2.019-4.171 3.698m-67.5 2.264c-12.451 3.132-20.688 11.134-22.093 21.464-1.114 8.191 3.846 22.041 11.926 33.301 1.927 2.685 3.252 5.537 2.944 6.338-.307.801-2.745 3.737-5.418 6.524-2.672 2.788-4.859 5.448-4.859 5.912 0 .464 1.545.844 3.433.844 2.596 0 3.593.506 4.091 2.075.362 1.142.505 2.182.317 2.312C44.27 112.942 40 116.368 40 117.085c0 .503 1.995.915 4.433.915 5.554 0 6.411 1.921 3.608 8.098-2.894 6.38-2.71 7.986.838 7.276 1.86-.372 3.187-.098 3.75.775.479.743.903 7.651.941 15.351.051 9.993.573 15.878 1.825 20.561 2.468 9.236 2.345 9.122 8.052 7.405 9.401-2.83 18.691-1.218 27.36 4.745 7.189 4.946 9.806 9.487 10.461 18.151 1.219 16.115 9.406 26.535 22.229 28.293 4.125.565 4.503.437 4.503-1.519 0-1.175-.479-2.136-1.065-2.136-.585 0-2.2-1.35-3.588-3-1.501-1.783-3.488-3-4.901-3-1.307 0-3.968-1.398-5.914-3.106-6.2-5.443-8.119-17.479-3.664-22.978 1.807-2.23 8.247-4.081 10.137-2.913 1.971 1.219.177 4.997-2.372 4.997-2.769 0-4.633 1.77-4.633 4.4 0 1.556.267 1.733 1.2.8.698-.698 4.044-1.2 8-1.2h6.8v-42h17.032c18.915 0 21.95.688 27.806 6.301 10.199 9.777 10.199 24.621 0 34.398-6.146 5.891-8.346 6.301-33.806 6.301-14.688 0-23.032.362-23.032 1 0 .55 1.548 1 3.441 1 1.893 0 3.731.47 4.086 1.044 1.061 1.717-1.57 3.956-4.649 3.956-4.083 0-3.567 1.737.872 2.937 5.023 1.357 8.25 3.752 8.25 6.12 0 1.881.96 1.943 30.25 1.941 33.775-.001 35.019-.219 39.48-6.896l2.27-3.398-.002-65.602c-.001-72.444.229-69.724-6.319-74.531-2.689-1.973-4.301-2.086-34.189-2.385-30.416-.304-31.377-.374-31.679-2.303-.284-1.818-.483-1.86-2.311-.486-1.987 1.495-1.986 1.514.25 3.11 2.031 1.45 2.25 2.434 2.25 10.099V88.1l-4.5-3.762c-5.266-4.401-5.98-7.75-1.872-8.781l2.627-.659-4.127-3.036c-2.271-1.669-4.128-3.601-4.128-4.294 0-1.741 2.734-3.925 7.724-6.169 2.324-1.044 4.236-2.461 4.25-3.149.02-.953 4.306-1.25 18.026-1.25h18V46h-36v-8.286l-7.75.532c-4.263.292-11.905 1.551-16.982 2.796l-9.233 2.265-5.05-4.724c-2.778-2.599-7.146-5.651-9.707-6.784-4.534-2.006-14.755-3.194-18.778-2.182m-7.629 8.389c-1.996 1.055-4.844 3.362-6.33 5.128l-2.701 3.21 2.33 1.277c2.087 1.144 2.531 1.009 4.253-1.295C52.846 43.086 57.759 41 62.968 41c4.517 0 4.633.153 2.548 3.335-1.308 1.997-1.31 2.515-.01 4.37 1.401 2 1.708 2.035 6.143.7 5.532-1.665 13.125-1.822 16.994-.351l2.772 1.054-2.457 1.242c-1.72.869-2.446 2.054-2.419 3.946.022 1.487-.428 2.708-1 2.714C80.893 58.053 66 68.505 66 71.722c0 .82-1.108 2.362-2.463 3.427-1.354 1.066-3.393 3.245-4.531 4.842l-2.068 2.905 2.174 1.164c1.895 1.014 2.549.762 5.106-1.975 1.613-1.725 4.024-3.852 5.357-4.726C70.997 76.427 72 74.803 72 73.433 72 69.624 83.183 63 89.614 63c2.525 0 4.878-3.276 3.998-5.568-.349-.909.345-1.634 1.95-2.037 2.65-.665 4.927-3.794 3.933-5.404-1.171-1.894-9.069-5.895-13.661-6.92-2.773-.619-6.437-.711-9.03-.227l-4.363.815.372-3.186c.339-2.896.08-3.244-2.845-3.829-5.98-1.196-13.37-.608-17.097 1.362M118.85 92.5c-.083.825-.195 1.926-.25 2.446-.055.521 2.038 2.083 4.65 3.472l4.75 2.526V91h-4.5c-3.267 0-4.541.411-4.65 1.5m33.65 2.162c-15.854 8.358-15.927 30.418-.127 38.519 8.922 4.574 21.179 1.378 27.118-7.072 2.724-3.876 3.009-5.021 3.009-12.109 0-7.084-.285-8.232-3-12.087-4.184-5.94-10.205-8.924-17.907-8.873-3.551.023-7.345.7-9.093 1.622m-28.183 9.741l-2.794 2.404 2.239 3.983c1.579 2.809 2.238 5.636 2.238 9.596 0 3.088.45 5.614 1 5.614.611 0 1-4.667 1-12 0-6.6-.2-12-.444-12-.245 0-1.702 1.082-3.239 2.403m31.729 3.397c-2.107 2.107-3.046 4.018-3.046 6.2 0 2.182.939 4.093 3.046 6.2 2.623 2.623 3.554 2.964 6.691 2.455 5.109-.829 7.718-3.754 7.718-8.655s-2.609-7.826-7.718-8.655c-3.137-.509-4.068-.168-6.691 2.455M213 140.057v22.058l4.25-.308 4.25-.307.27-21.75.269-21.75H213v22.057m-123.777-11.5c-3.259 2.282-2.893 6.61.925 10.959 3.694 4.207 7.701 6.484 11.409 6.484 1.791 0 2.492.431 2.15 1.321-2.398 6.25-5.818 18.772-6.34 23.217-.626 5.321-.578 5.462 1.839 5.462 2.316 0 2.593-.566 4.151-8.499 1.931-9.826 4.765-17.896 7.959-22.658 1.81-2.7 3.342-3.606 7.963-4.708 4.98-1.189 5.721-1.674 5.721-3.75 0-2.882-1.521-3.013-9.034-.782-4.461 1.324-5.474 1.368-5.836.25-.241-.744-2.116-3.04-4.167-5.103-3.389-3.409-4.218-3.75-9.123-3.75-3.264 0-6.273.615-7.617 1.557m3.247 4.491c-.356.577.999 2.602 3.012 4.5 2.707 2.553 4.553 3.452 7.089 3.452 4.288 0 4.441-1.705.528-5.894-2.189-2.343-3.771-3.106-6.441-3.106-1.947 0-3.831.472-4.188 1.048m41.53 47.4V192h11.066l-.283-11.25-.283-11.25-5.25-.302-5.25-.303v11.553m23.558-10.673c-.713.713-.738 22.225-.026 22.225.293 0 2.063-.64 3.934-1.421 5.879-2.457 8.362-10.481 4.83-15.606-2.729-3.96-7.273-6.663-8.738-5.198" fill="#1976D2" fill-rule="evenodd"/><path fill-opacity=".974" d="M128 27.352v5.353l-8.304.638c-4.567.351-11.831 1.541-16.143 2.643l-7.839 2.005-4.432-4.085c-9.139-8.424-21.345-11.536-33.297-8.489-12.572 3.206-21.674 11.951-23.976 23.038-1.954 9.413 2.159 23.426 10.615 36.165 3.386 5.102 3.584 5.755 2.083 6.852C44.232 93.282 35 105.075 35 106.427c0 1.811 2.088 3.476 3.622 2.888 2.118-.813 1.662.252-1.659 3.873-6.033 6.58-4.934 10.901 2.557 10.057l4.483-.505-1.428 4.046c-.785 2.226-1.73 6.065-2.1 8.532-.606 4.038-.454 4.554 1.527 5.183 1.229.39 2.684.213 3.299-.402 2.85-2.85 3.437-1.05 3.474 10.651.04 12.816.958 18.788 4.23 27.534 2.376 6.352 3.09 6.652 9.995 4.216 9.675-3.414 20.113-1.039 27.849 6.337 4.76 4.538 4.905 4.85 5.442 11.664 1.117 14.195 7.258 24.914 17.181 29.989l5.887 3.01H193.5l5.254-2.911c2.89-1.601 6.395-4.407 7.789-6.234 4.783-6.271 5.457-10.084 5.457-30.871v-19.265l7.5-.379c6.893-.348 7.764-.642 10.75-3.627l3.25-3.248.297-25.941c.381-33.244.09-33.956-14.297-35.011l-7-.513-.544-15c-.299-8.25-1.066-16.214-1.705-17.698-1.793-4.165-8.176-10.723-12.665-13.013-2.808-1.433-6.711-2.218-12.721-2.561l-8.671-.494-.347-8.263C175.268 34.698 172.38 33 149.532 33H134v-3.5c0-3.388-2.741-7.5-5-7.5-.55 0-1 2.409-1 5.352m-70 2.583c-8.368 2.555-15.765 8.866-18.742 15.989-1.959 4.69-1.204 14.711 1.68 22.283 1.196 3.139 4.399 9.116 7.118 13.281C50.775 85.654 53 89.622 53 90.306c0 .684-2.547 3.932-5.66 7.219l-5.66 5.975 4.057.302c5.995.447 6.371 3.337.923 7.095-2.288 1.579-5.017 3.823-6.065 4.987L38.69 118h4.605c6.283 0 7.04 1.645 4.076 8.852-1.278 3.106-2.334 6.137-2.347 6.734-.014.626 1.747 1.05 4.151 1l4.175-.086.143 16c.11 12.274.556 17.281 1.916 21.5.975 3.025 2.14 5.886 2.59 6.358.452.475 2.458.316 4.494-.356 10.488-3.461 22.639-.552 31.34 7.504l5.74 5.314 1.14 9.029c1.821 14.432 6.844 23.102 15.787 27.251 4.86 2.255 11.5 2.541 11.5.496 0-2.281-6.193-8.596-8.434-8.6-6.62-.012-12.505-8.374-12.544-17.823-.019-4.57.393-5.742 2.901-8.25 2.112-2.112 3.89-2.923 6.406-2.923 2.917 0 3.404.306 2.992 1.88-.271 1.037-1.905 2.285-3.644 2.784-2.086.598-3.474 1.816-4.101 3.6-1.201 3.414-.134 4.551 2.247 2.397 1.292-1.17 3.658-1.661 8.006-1.661H128v-42l16.25.044c10.938.029 17.477.481 20.002 1.383 15.355 5.48 20.734 24.641 10.427 37.146-1.67 2.027-5.319 4.748-8.108 6.046-4.858 2.262-6.023 2.362-27.762 2.371-14.038.006-22.927.391-23.309 1.01-.364.589.743 1.006 2.691 1.015 4.697.022 6.579 1.353 4.854 3.431-.73.88-2.1 1.354-3.045 1.054-.945-.3-2.468-.258-3.385.094-2.372.911-.386 3.002 3.609 3.801 3.47.694 7.776 4.171 7.776 6.279 0 1.072 5.855 1.326 30.599 1.326 33.915 0 35.786-.304 39.515-6.42 1.788-2.932 1.879-6.289 1.882-69.962.004-65.314-.043-66.958-2.012-70.144C194.139 69.253 192.6 69 158.599 69 128.667 69 128 68.956 128 67c0-2.335-.915-2.514-3.435-.671-1.72 1.258-1.679 1.436.774 3.366 2.392 1.881 2.588 2.625 2.551 9.68l-.04 7.642-4.468-3.209c-4.948-3.554-5.697-7.05-1.632-7.628 1.237-.175 2.25-.686 2.25-1.135 0-.448-1.013-1.526-2.25-2.396-5.534-3.889-5.943-4.419-4.904-6.361.552-1.032 3.288-2.945 6.079-4.253 2.791-1.307 5.075-2.975 5.075-3.706 0-1.056 3.696-1.329 18-1.329h18V45h-36v-7.706l-5.25.372c-7.859.558-18.753 2.427-23.126 3.968C97.493 42.385 95.41 43 94.995 43c-.414 0-3.091-2.23-5.949-4.956-6.475-6.176-13.709-9.077-22.334-8.958-3.416.047-7.337.429-8.712.849m-2.906 7.357C51.808 38.341 45 44.164 45 45.926c0 .473.751 1.148 1.668 1.5 1.102.423 2.797-.453 4.989-2.578 2.843-2.755 4.209-3.283 9.489-3.665 5.73-.414 6.114-.312 5.398 1.435-1.423 3.474-1.575 4.874-.678 6.246.748 1.142 1.984 1.09 7.612-.322 7.027-1.762 12.077-1.475 16.521.938l2.499 1.357-2.713.681c-2.723.683-4.46 3.581-3.286 5.48.345.559-.188 1.273-1.186 1.588-5.755 1.813-12.023 5.337-15.506 8.717-2.187 2.123-3.703 4.134-3.368 4.469.335.336-1.539 2.802-4.165 5.481-4.439 4.53-4.647 4.965-2.971 6.209 1.604 1.188 2.377.767 6.983-3.813 2.849-2.832 5.055-5.548 4.901-6.036-.868-2.765 9.89-9.718 17.051-11.02 4.073-.74 6.422-3.533 4.548-5.407-1.186-1.186-.327-1.74 3.703-2.389 2.59-.417 3.13-3.455 1.027-5.779-.912-1.008-3.972-2.828-6.8-4.045-4.17-1.794-6.412-2.12-11.876-1.729l-6.735.481.557-2.785c.508-2.542.22-2.879-3.302-3.857-4.716-1.309-9.741-1.236-14.266.209M119 94.031c0 1.118.787 2.316 1.75 2.663s2.987 1.489 4.5 2.537l2.75 1.905V92h-4.5c-3.857 0-4.5.29-4.5 2.031m34.5.871c-8.664 4.024-12.93 11.134-12.308 20.516.534 8.063 4.119 13.562 11.114 17.047 20.651 10.291 40.547-14.895 25.398-32.149-6.116-6.967-16.069-9.193-24.204-5.414m-28.75 9.49c-2.117 1.607-2.204 4.424-.218 7.049.93 1.231 1.468 4.251 1.468 8.25 0 3.539.439 6.309 1 6.309.609 0 1-4.5 1-11.5 0-6.325-.338-11.486-.75-11.468-.412.017-1.537.629-2.5 1.36m30.896 3.06C153.615 109.335 153 110.856 153 114c0 8.524 9.991 12.364 15.411 5.923 3.507-4.167 3.392-8.273-.334-12-3.776-3.776-8.665-3.961-12.431-.471m57.068 10.168c-.393.392-.714 10.538-.714 22.547V162h10.038l-.269-22.25-.269-22.25-4.036-.297c-2.22-.163-4.358.024-4.75.417M90.748 128.163c-7.925 2.894-.25 16.155 10.158 17.551l3.766.505-2.422 6.641c-2.049 5.619-5.25 19.171-5.25 22.228 0 .502 1.125.912 2.5.912 2.08 0 2.5-.477 2.5-2.84 0-4.311 3.627-17.579 6.642-24.297 2.913-6.491 5.326-8.355 12.253-9.462 4.152-.664 4.55-1.077 3.551-3.68-.437-1.139-1.491-1.268-5.014-.609-2.453.458-5.319 1.292-6.369 1.854-1.604.859-2.246.473-4.036-2.422-4.027-6.516-11.125-8.994-18.279-6.381m3.002 3.507c-2.693.733-2.095 2.819 1.785 6.226 2.499 2.195 4.55 3.104 7 3.104 4.306 0 4.525-1.82.715-5.949-2.776-3.007-6.284-4.256-9.5-3.381M133 180.5V192h12v-23h-12v11.5m24 .108v11.609l2.75-.644c4.572-1.071 8.25-5.916 8.25-10.866 0-2.344-.702-5.265-1.561-6.49-1.55-2.214-6.38-5.217-8.389-5.217-.673 0-1.05 4.17-1.05 11.608" fill="#1976D2" fill-rule="evenodd"/></svg>